<?xml version="1.0" standalone="no"?>
<!DOCTYPE svg PUBLIC "-//W3C//DTD SVG 20010904//EN"
 "http://www.w3.org/TR/2001/REC-SVG-20010904/DTD/svg10.dtd">
<svg version="1.0" xmlns="http://www.w3.org/2000/svg"
 width="700.000000pt" height="700.000000pt" viewBox="0 0 700.000000 700.000000"
 preserveAspectRatio="xMidYMid meet">
<metadata>
Created by potrace 1.14, written by Peter Selinger 2001-2017
</metadata>
<g transform="translate(0.000000,700.000000) scale(0.100000,-0.100000)"
fill="#000000" stroke="none">
<path d="M2518 6995 c-1 -1 -25 -6 -52 -10 -133 -17 -311 -112 -420 -224 -74
-75 -109 -125 -156 -226 -53 -113 -70 -191 -71 -328 0 -89 5 -126 33 -222 37
-131 97 -226 210 -337 144 -142 324 -217 530 -223 319 -8 606 166 742 449 48
99 66 174 73 296 17 316 -152 605 -433 744 -93 45 -131 57 -239 75 -48 9 -209
13 -217 6z"/>
<path d="M4268 6995 c-1 -2 -20 -6 -42 -9 -256 -41 -515 -262 -602 -516 -34
-99 -43 -164 -40 -290 3 -98 8 -129 35 -210 83 -247 271 -433 517 -510 85 -26
145 -35 249 -34 175 1 315 46 461 150 323 228 421 672 226 1019 -112 199 -293
330 -537 391 -30 7 -260 15 -267 9z"/>
<path d="M5975 6983 c-236 -50 -440 -206 -547 -418 -59 -117 -79 -195 -84
-325 -10 -288 137 -558 382 -701 150 -88 276 -120 449 -113 290 11 549 179
678 439 61 123 81 216 80 365 -2 347 -253 658 -598 745 -94 24 -270 28 -360 8z"/>
<path d="M795 5189 c-155 -16 -230 -39 -349 -108 -356 -205 -492 -660 -309
-1026 135 -269 414 -439 718 -439 68 1 156 11 186 22 13 5 27 10 32 11 34 4
73 19 142 54 469 242 579 843 225 1230 -132 143 -311 235 -495 253 -33 3 -64
6 -70 8 -5 1 -41 -1 -80 -5z"/>
<path d="M2618 5195 c-1 -2 -30 -5 -63 -6 -363 -16 -697 -331 -731 -692 -9
-96 -9 -101 -1 -182 34 -308 252 -568 557 -664 189 -59 406 -43 581 44 206
102 343 259 416 478 24 74 27 97 27 227 1 125 -2 155 -23 220 -98 315 -363
535 -678 566 -32 3 -63 7 -70 9 -6 2 -13 2 -15 0z"/>
<path d="M4387 5195 c-1 -2 -36 -5 -77 -8 -331 -23 -617 -259 -706 -582 -23
-84 -28 -266 -9 -353 41 -196 145 -359 307 -480 234 -176 559 -205 827 -75 75
37 195 126 243 181 309 353 254 879 -123 1160 -66 50 -185 106 -267 127 -54
14 -189 34 -195 30z"/>
<path d="M2516 3378 c-278 -33 -526 -219 -636 -476 -45 -107 -62 -190 -61
-312 1 -446 376 -798 829 -777 59 2 116 7 127 10 123 31 205 65 282 118 269
182 403 503 338 815 -83 399 -467 670 -879 622z"/>
<path d="M4310 3383 c-210 -26 -363 -98 -498 -233 -91 -91 -157 -198 -196
-316 -27 -81 -28 -93 -31 -224 -4 -151 14 -230 80 -365 45 -90 67 -120 148
-204 109 -113 262 -192 431 -222 65 -11 239 -8 301 5 356 77 615 387 627 751
12 353 -230 681 -572 778 -86 24 -222 38 -290 30z"/>
<path d="M2548 1575 c-2 -1 -28 -5 -58 -8 -61 -7 -172 -42 -240 -77 -260 -132
-430 -404 -432 -690 -2 -330 194 -620 502 -744 133 -54 354 -68 490 -32 297
80 516 305 584 601 22 97 16 285 -12 378 -75 248 -252 436 -496 527 -42 15
-76 26 -76 25 0 -2 -15 1 -32 6 -30 9 -222 21 -230 14z"/>
</g>
</svg>
