<svg width="1280" height="226" viewBox="0 0 1280 226" fill="none" xmlns="http://www.w3.org/2000/svg">
<g clip-path="url(#clip0_532_3767)">
<path d="M721.039 57.9551V65.5659C721.631 68.5734 723.164 71.2842 725.617 73.7086C728.876 76.9821 732.851 78.6188 737.51 78.6188C742.16 78.6188 746.145 76.9719 749.445 73.6677C752.735 70.3738 754.391 66.3843 754.391 61.7196C754.391 57.0856 752.735 53.1165 749.445 49.8124C746.145 46.4878 742.16 44.8204 737.51 44.8204C732.851 44.8204 728.876 46.4878 725.617 49.8124C723.164 52.247 721.631 54.9579 721.039 57.9551ZM721.039 81.3603V103.784H711.229V38.7236H721.039V43.1427C725.749 37.5881 731.236 34.7954 737.51 34.7954C744.939 34.7954 751.284 37.4346 756.516 42.6926C761.768 47.9301 764.404 54.2827 764.404 61.7196C764.404 69.1667 761.768 75.5295 756.516 80.7875C751.284 86.0557 744.939 88.6847 737.51 88.6847C731.236 88.6847 725.749 86.2501 721.039 81.3603Z" fill="#221E1F"/>
<path d="M819.189 65.3613V58.1597C818.617 55.1113 817.094 52.3391 814.652 49.8533C811.321 46.5901 807.346 44.9431 802.717 44.9431C798.058 44.9431 794.073 46.5901 790.783 49.8533C787.513 53.1268 785.878 57.1061 785.878 61.7605C785.878 66.4047 787.513 70.3738 790.783 73.6677C794.073 76.9719 798.058 78.6188 802.717 78.6188C807.346 78.6188 811.321 76.9821 814.652 73.7086C817.094 71.2024 818.617 68.42 819.189 65.3613ZM819.189 42.1198V38.7236H828.998V87.4571H819.189V81.3603C814.448 86.2501 808.95 88.6847 802.717 88.6847C795.299 88.6847 788.964 86.0659 783.712 80.8284C778.48 75.5704 775.864 69.2076 775.864 61.7605C775.864 54.3236 778.48 47.9711 783.712 42.7335C788.964 37.4756 795.299 34.8363 802.717 34.8363C808.95 34.8363 814.448 37.271 819.189 42.1198Z" fill="#221E1F"/>
<path d="M882.605 70.7216L892.373 74.1996C889.972 77.5345 888.235 79.7338 887.183 80.7875C881.92 86.0557 875.565 88.6847 868.136 88.6847C860.718 88.6847 854.383 86.0557 849.131 80.7875C843.868 75.5295 841.242 69.1667 841.242 61.7196C841.242 54.2827 843.868 47.9199 849.131 42.6517C854.383 37.3937 860.718 34.7545 868.136 34.7545C875.565 34.7545 881.92 37.3937 887.183 42.6517C888.235 43.7156 889.972 45.8945 892.373 49.1577L882.605 52.7176C881.348 51.1934 880.49 50.2113 880.03 49.7715C876.76 46.4776 872.785 44.8204 868.136 44.8204C863.497 44.8204 859.533 46.4776 856.242 49.7715C852.942 53.0756 851.297 57.0651 851.297 61.7196C851.297 66.3638 852.942 70.3329 856.242 73.6268C859.533 76.9309 863.497 78.5779 868.136 78.5779C872.785 78.5779 876.781 76.9412 880.112 73.6677C880.51 73.2074 881.348 72.2253 882.605 70.7216Z" fill="#221E1F"/>
<path d="M940.213 38.7236L927.338 60.9831L942.542 87.4162H931.262L921.779 71.0489L912.297 87.4162H900.935L916.18 60.9831L903.387 38.7236H914.668L921.779 50.8763L928.809 38.7236H940.213Z" fill="#221E1F"/>
<path d="M977.832 34.7545C985.261 34.7545 991.606 37.3937 996.838 42.6517C1002.09 47.9199 1004.73 54.2827 1004.73 61.7196C1004.73 69.1667 1002.09 75.5295 996.838 80.7875C991.606 86.0557 985.261 88.6847 977.832 88.6847C970.414 88.6847 964.079 86.0557 958.827 80.7875C953.565 75.5295 950.938 69.1667 950.938 61.7196C950.938 54.2827 953.565 47.9199 958.827 42.6517C964.079 37.3937 970.414 34.7545 977.832 34.7545ZM977.832 44.8204C973.173 44.8204 969.188 46.4878 965.898 49.8124C962.597 53.1165 960.952 57.0856 960.952 61.7196C960.952 66.3843 962.597 70.3738 965.898 73.6677C969.188 76.9412 973.173 78.5779 977.832 78.5779C982.482 78.5779 986.467 76.9412 989.767 73.6677C993.057 70.3738 994.713 66.3843 994.713 61.7196C994.713 57.0856 993.057 53.1165 989.767 49.8124C986.467 46.4878 982.482 44.8204 977.832 44.8204Z" fill="#221E1F"/>
<path d="M1056.78 77.2276H1060.26V103.743H1050.45V87.4162H1022.29V103.743H1012.52V77.2276H1017.71C1017.48 77.4526 1017.38 77.5856 1017.38 77.6368H1017.42C1022.79 72.2458 1025.47 63.9087 1025.47 52.6357C1025.47 50.2727 1025.36 48.0324 1025.15 45.9252C1024.98 44.6772 1024.51 42.2732 1023.76 38.7236H1056.78V77.2276ZM1030.3 77.5549H1047.01V48.5439H1035.32V52.6357C1035.32 65.1056 1033.64 73.412 1030.3 77.5549Z" fill="#221E1F"/>
<path d="M1110.05 87.4162H1100.33V66.1797H1077.64V87.4162H1067.83V38.7236H1077.64V56.3184H1100.33V38.7236H1110.05V87.4162Z" fill="#221E1F"/>
<path d="M1130.03 77.5549H1147.28V77.6777C1151.31 77.4936 1154.02 76.8184 1155.41 75.6727C1156.5 74.7827 1157.05 73.5245 1157.05 71.9082C1157.05 70.2204 1156.5 68.911 1155.41 67.9801C1154.02 66.8651 1151.31 66.2104 1147.28 66.016V66.1388H1130.03V77.5549ZM1179.32 87.4162H1169.56V38.7236H1179.32V87.4162ZM1120.26 87.4162V38.7236H1130.03V56.2775H1153.29V56.4821C1155.89 56.5946 1158.77 58.0267 1161.87 60.7785C1165.21 63.7246 1166.9 67.4277 1166.9 71.8673V71.9082C1166.9 76.3274 1165.21 79.9998 1161.87 82.9152C1158.77 85.9227 1155.89 87.4162 1153.29 87.4162H1120.26Z" fill="#221E1F"/>
<path d="M1207.78 76.4092C1209.44 77.8618 1212.42 78.5779 1216.73 78.5779C1221.38 78.5779 1225.38 76.9412 1228.71 73.6677C1229.11 73.2074 1229.95 72.2253 1231.2 70.7216L1240.97 74.1996C1238.57 77.5345 1236.83 79.7338 1235.78 80.7875C1230.52 86.0557 1224.16 88.6847 1216.73 88.6847C1209.32 88.6847 1202.98 86.0557 1197.73 80.7875C1192.47 75.5295 1189.84 69.1667 1189.84 61.7196C1189.84 54.2827 1192.47 47.9199 1197.73 42.6517C1202.98 37.3937 1209.32 34.7545 1216.73 34.7545C1223.1 34.7545 1228.68 36.6879 1233.45 40.524C1234.24 41.1786 1235.01 41.8947 1235.78 42.6517C1236.1 42.979 1237.01 43.9815 1238.48 45.6387L1233.57 50.5898L1207.78 76.4092ZM1224.17 46.1297C1223.05 45.2602 1220.57 44.8204 1216.73 44.8204C1212.1 44.8204 1208.13 46.4776 1204.84 49.7715C1201.54 53.0756 1199.9 57.0651 1199.9 61.7196C1199.9 65.5454 1200.32 68.0312 1201.2 69.1667L1224.17 46.1297Z" fill="#221E1F"/>
<path d="M731.625 181.581L745.644 149.133H754.718V197.826H744.949V175.853L735.426 197.826H727.701L718.26 175.853V197.826H708.45V149.133H717.524L731.625 181.581Z" fill="#221E1F"/>
<path d="M808.896 175.771V168.569C808.324 165.521 806.801 162.749 804.359 160.263C801.028 157 797.053 155.353 792.424 155.353C787.765 155.353 783.78 157 780.49 160.263C777.22 163.536 775.585 167.516 775.585 172.17C775.585 176.814 777.22 180.783 780.49 184.077C783.78 187.381 787.765 189.028 792.424 189.028C797.053 189.028 801.028 187.392 804.359 184.118C806.801 181.612 808.324 178.829 808.896 175.771ZM808.896 152.529V149.133H818.705V197.867H808.896V191.77C804.155 196.66 798.657 199.094 792.424 199.094C785.006 199.094 778.671 196.475 773.419 191.238C768.187 185.98 765.571 179.617 765.571 172.17C765.571 164.733 768.187 158.381 773.419 153.143C778.671 147.885 785.006 145.246 792.424 145.246C798.657 145.246 804.155 147.68 808.896 152.529Z" fill="#221E1F"/>
<path d="M858.415 158.994V197.826H848.687V158.994H830.989V149.133H876.071V158.994H858.415Z" fill="#221E1F"/>
<path d="M903.201 186.819C904.856 188.271 907.84 188.987 912.152 188.987C916.801 188.987 920.796 187.351 924.127 184.077C924.526 183.617 925.364 182.635 926.62 181.131L936.389 184.609C933.988 187.944 932.251 190.143 931.198 191.197C925.936 196.465 919.58 199.094 912.152 199.094C904.733 199.094 898.398 196.465 893.146 191.197C887.884 185.939 885.258 179.576 885.258 172.129C885.258 164.692 887.884 158.329 893.146 153.061C898.398 147.803 904.733 145.164 912.152 145.164C918.518 145.164 924.097 147.097 928.868 150.933C929.655 151.588 930.432 152.304 931.198 153.061C931.515 153.389 932.424 154.391 933.896 156.048L928.991 160.999L903.201 186.819ZM919.59 156.539C918.466 155.67 915.983 155.23 912.152 155.23C907.513 155.23 903.548 156.887 900.258 160.181C896.957 163.485 895.312 167.475 895.312 172.129C895.312 175.955 895.742 178.441 896.62 179.576L919.59 156.539Z" fill="#221E1F"/>
<path d="M958.274 168.365V175.975C958.867 178.983 960.4 181.694 962.852 184.118C966.111 187.392 970.086 189.028 974.746 189.028C979.395 189.028 983.38 187.381 986.68 184.077C989.971 180.783 991.626 176.794 991.626 172.129C991.626 167.495 989.971 163.526 986.68 160.222C983.38 156.897 979.395 155.23 974.746 155.23C970.086 155.23 966.111 156.897 962.852 160.222C960.4 162.657 958.867 165.367 958.274 168.365ZM958.274 191.77V214.193H948.465V149.133H958.274V153.552C962.985 147.998 968.472 145.205 974.746 145.205C982.174 145.205 988.52 147.844 993.751 153.102C999.003 158.34 1001.64 164.692 1001.64 172.129C1001.64 179.576 999.003 185.939 993.751 191.197C988.52 196.465 982.174 199.094 974.746 199.094C968.472 199.094 962.985 196.66 958.274 191.77Z" fill="#221E1F"/>
<path d="M1012 149.133H1021.76V179.535L1044.73 149.133H1053.32V197.826H1043.55V167.014L1021.76 195.78V197.826H1012V149.133Z" fill="#221E1F"/>
<path d="M1107.99 175.771V168.569C1107.42 165.521 1105.89 162.749 1103.45 160.263C1100.12 157 1096.15 155.353 1091.52 155.353C1086.86 155.353 1082.87 157 1079.58 160.263C1076.31 163.536 1074.68 167.516 1074.68 172.17C1074.68 176.814 1076.31 180.783 1079.58 184.077C1082.87 187.381 1086.86 189.028 1091.52 189.028C1096.15 189.028 1100.12 187.392 1103.45 184.118C1105.89 181.612 1107.42 178.829 1107.99 175.771ZM1107.99 152.529V149.133H1117.8V197.867H1107.99V191.77C1103.25 196.66 1097.75 199.094 1091.52 199.094C1084.1 199.094 1077.76 196.475 1072.51 191.238C1067.28 185.98 1064.66 179.617 1064.66 172.17C1064.66 164.733 1067.28 158.381 1072.51 153.143C1077.76 147.885 1084.1 145.246 1091.52 145.246C1097.75 145.246 1103.25 147.68 1107.99 152.529Z" fill="#221E1F"/>
<path d="M1175.98 149.133V197.826H1166.21V158.994H1143.53V185.018C1143.53 192.936 1138.51 197.304 1128.49 198.112V188.415C1131.99 188.016 1133.76 186.901 1133.76 185.1V149.133H1175.98Z" fill="#221E1F"/>
<path d="M1196.6 187.964H1213.84V188.087C1217.87 187.903 1220.59 187.228 1221.98 186.082C1223.06 185.192 1223.61 183.934 1223.61 182.318C1223.61 180.63 1223.06 179.321 1221.98 178.39C1220.59 177.275 1217.87 176.62 1213.84 176.426V176.548H1196.6V187.964ZM1245.89 197.826H1236.12V149.133H1245.89V197.826ZM1186.83 197.826V149.133H1196.6V166.687H1219.85V166.892C1222.46 167.004 1225.33 168.436 1228.44 171.188C1231.78 174.134 1233.46 177.837 1233.46 182.277V182.318C1233.46 186.737 1231.78 190.409 1228.44 193.325C1225.33 196.332 1222.46 197.826 1219.85 197.826H1186.83Z" fill="#221E1F"/>
<path d="M78.3114 180.869C78.3114 191.149 69.9836 199.487 59.7043 199.487C49.4351 199.487 41.1074 191.149 41.1074 180.869C41.1074 170.578 49.4351 162.241 59.7043 162.241C69.9836 162.241 78.3114 170.578 78.3114 180.869Z" fill="#00AB4E"/>
<path d="M78.3114 52.8254C78.3114 63.1163 69.9836 71.4534 59.7043 71.4534C49.4351 71.4534 41.1074 63.1163 41.1074 52.8254C41.1074 42.5447 49.4351 34.2076 59.7043 34.2076C69.9836 34.2076 78.3114 42.5447 78.3114 52.8254Z" fill="#221E1F"/>
<path d="M119.418 52.8254C119.418 63.1163 111.091 71.4534 100.811 71.4534C90.542 71.4534 82.2041 63.1163 82.2041 52.8254C82.2041 42.5447 90.542 34.2076 100.811 34.2076C111.091 34.2076 119.418 42.5447 119.418 52.8254Z" fill="#221E1F"/>
<path d="M160.526 52.8254C160.526 63.1163 152.198 71.4534 141.919 71.4534C131.639 71.4534 123.312 63.1163 123.312 52.8254C123.312 42.5447 131.639 34.2076 141.919 34.2076C152.198 34.2076 160.526 42.5447 160.526 52.8254Z" fill="#221E1F"/>
<path d="M37.2142 95.5133C37.2142 105.794 28.8762 114.131 18.6071 114.131C8.32771 114.131 0 105.794 0 95.5133C0 85.2224 8.32771 76.8853 18.6071 76.8853C28.8762 76.8853 37.2142 85.2224 37.2142 95.5133Z" fill="#00AB4E"/>
<path d="M78.3114 95.5133C78.3114 105.794 69.9836 114.131 59.7043 114.131C49.4351 114.131 41.1074 105.794 41.1074 95.5133C41.1074 85.2224 49.4351 76.8853 59.7043 76.8853C69.9836 76.8853 78.3114 85.2224 78.3114 95.5133Z" fill="#00AB4E"/>
<path d="M119.418 95.5133C119.418 105.794 111.091 114.131 100.811 114.131C90.542 114.131 82.2041 105.794 82.2041 95.5133C82.2041 85.2224 90.542 76.8853 100.811 76.8853C111.091 76.8853 119.418 85.2224 119.418 95.5133Z" fill="#00AB4E"/>
<path d="M78.3114 138.191C78.3114 148.472 69.9836 156.809 59.7043 156.809C49.4351 156.809 41.1074 148.472 41.1074 138.191C41.1074 127.9 49.4351 119.563 59.7043 119.563C69.9836 119.563 78.3114 127.9 78.3114 138.191Z" fill="#00AB4E"/>
<path d="M119.418 138.191C119.418 148.472 111.091 156.809 100.811 156.809C90.542 156.809 82.2041 148.472 82.2041 138.191C82.2041 127.9 90.542 119.563 100.811 119.563C111.091 119.563 119.418 127.9 119.418 138.191Z" fill="#221E1F"/>
<path d="M358.623 119.318V195.742H349.764V37.9721H358.623V105.119L408.957 37.9721H420.381L373.102 101.477L434.175 195.742H423.242L367.298 108.576" fill="#221E1F"/>
<path d="M563.178 172.47L569.871 178.485C554.514 192.489 536.417 199.487 515.603 199.487C493.277 199.487 474.251 191.62 458.515 175.877C442.789 160.133 434.932 141.086 434.932 118.734C434.932 96.4442 442.789 77.407 458.515 61.6331C474.251 45.8591 493.277 37.9721 515.603 37.9721C536.417 37.9721 554.514 44.9691 569.871 58.9734L563.178 65.0804C549.65 53.0505 533.791 47.0355 515.603 47.0355C495.831 47.0355 478.961 54.0427 464.973 68.047C450.984 82.0512 443.995 98.9402 443.995 118.734C443.995 138.59 450.984 155.51 464.973 169.514C478.961 183.518 495.831 190.515 515.603 190.515C533.791 190.515 549.65 184.5 563.178 172.47Z" fill="#221E1F"/>
<path d="M635.389 46.8411V195.743H626.52V46.8411H586.628V37.9619H675.28V46.8411" fill="#221E1F"/>
<path d="M240.942 96.7307C241.575 96.7307 242.189 96.7818 242.791 96.8432C242.986 96.8534 243.169 96.8841 243.364 96.9148C243.783 96.9659 244.202 97.0375 244.62 97.1296C244.825 97.1705 245.019 97.2114 245.223 97.2626C245.642 97.3649 246.061 97.4876 246.48 97.6206C246.633 97.6718 246.797 97.7127 246.95 97.7638C247.492 97.9582 248.013 98.173 248.534 98.4185C248.708 98.4901 248.871 98.5822 249.035 98.6743C249.392 98.8482 249.729 99.0323 250.067 99.2267C250.271 99.3494 250.475 99.4722 250.68 99.6052C250.966 99.7995 251.252 99.9939 251.538 100.198C251.732 100.342 251.926 100.475 252.11 100.628C252.161 100.659 252.202 100.7 252.253 100.73C252.274 100.761 252.304 100.782 252.325 100.812C253.183 101.508 253.99 102.265 254.695 103.114H254.777C260.642 108.791 268.612 112.3 277.42 112.3C284.645 112.3 291.297 109.927 296.702 105.937L296.722 105.947C297.877 105.027 299.226 104.352 300.677 103.922C300.901 103.85 301.126 103.789 301.361 103.738C301.607 103.687 301.842 103.625 302.087 103.595C302.628 103.503 303.18 103.451 303.752 103.451C310.026 103.451 315.125 108.546 315.125 114.837C315.125 121.128 310.026 126.222 303.752 126.222C303.18 126.222 302.628 126.161 302.087 126.069C301.842 126.038 301.607 125.977 301.361 125.926C301.126 125.875 300.901 125.813 300.677 125.742C299.226 125.322 297.877 124.637 296.722 123.726H296.702C291.297 119.747 284.645 117.364 277.42 117.364C268.612 117.364 260.642 120.872 254.777 126.55L254.695 126.56C253.99 127.399 253.183 128.156 252.325 128.851C252.304 128.882 252.274 128.903 252.253 128.933C252.202 128.974 252.161 129.005 252.11 129.046C251.926 129.189 251.732 129.322 251.538 129.465C251.252 129.67 250.966 129.864 250.68 130.059C250.475 130.192 250.271 130.314 250.067 130.437C249.729 130.631 249.392 130.816 249.035 130.989C248.871 131.081 248.708 131.174 248.534 131.255C248.013 131.491 247.492 131.705 246.95 131.9C246.797 131.951 246.633 131.992 246.48 132.043C246.061 132.176 245.642 132.299 245.223 132.401C245.019 132.452 244.825 132.493 244.62 132.534C244.202 132.626 243.783 132.698 243.364 132.749C243.169 132.78 242.986 132.81 242.791 132.831C242.189 132.892 241.575 132.933 240.942 132.933C230.959 132.933 222.866 124.831 222.866 114.837C222.866 104.832 230.959 96.7307 240.942 96.7307Z" fill="#00AB4E"/>
<path d="M320.387 119.225C319.468 137.168 312.509 152.656 299.501 165.668C285.452 179.733 268.541 186.771 248.779 186.771C228.946 186.771 212.004 179.733 197.954 165.668C190.332 158.169 184.783 149.791 181.309 140.523H171.755C175.556 152.226 182.127 162.711 191.456 171.979C207.273 187.825 226.391 195.742 248.779 195.742C271.044 195.742 290.07 187.856 305.857 172.082C321.654 156.297 329.553 137.199 329.553 114.786C329.553 92.4342 321.654 73.3664 305.857 57.5924C290.07 41.8082 271.044 33.9212 248.779 33.9212C226.391 33.9212 207.273 41.7775 191.456 57.4901C186.858 62.2264 182.913 67.157 179.633 72.282H190.669C192.835 69.4587 195.257 66.6967 197.954 63.9961C212.004 49.9304 228.946 42.8925 248.779 42.8925C268.541 42.8925 285.452 49.9304 299.501 63.9961C312.509 77.0183 319.468 92.4649 320.387 110.346" fill="#221E1F"/>
</g>
<defs>
<clipPath id="clip0_532_3767">
<rect width="1280" height="225.764" fill="white"/>
</clipPath>
</defs>
</svg>
