<svg width="228" height="68" viewBox="0 0 228 68" fill="none" xmlns="http://www.w3.org/2000/svg">
<g filter="url(#filter0_d_520_3595)">
<path d="M32.4603 53.2385C32.4603 56.9732 29.4328 60 25.6988 60C21.9649 60 18.9373 56.9732 18.9373 53.2385C18.9373 49.5045 21.9649 46.477 25.6988 46.477C29.4328 46.477 32.4603 49.5045 32.4603 53.2385Z" fill="#0077BD"/>
<path d="M32.4603 6.76072C32.4603 10.4954 29.4328 13.5222 25.6988 13.5222C21.9649 13.5222 18.9373 10.4954 18.9373 6.76072C18.9373 3.02676 21.9649 -5.30664e-05 25.6988 -5.30664e-05C29.4328 -5.30664e-05 32.4603 3.02676 32.4603 6.76072Z" fill="white"/>
<path d="M47.3981 6.76072C47.3981 10.4954 44.3713 13.5222 40.6374 13.5222C36.9027 13.5222 33.8759 10.4954 33.8759 6.76072C33.8759 3.02676 36.9027 -5.30664e-05 40.6374 -5.30664e-05C44.3713 -5.30664e-05 47.3981 3.02676 47.3981 6.76072Z" fill="white"/>
<path d="M62.3363 6.76072C62.3363 10.4954 59.3095 13.5222 55.5748 13.5222C51.8409 13.5222 48.814 10.4954 48.814 6.76072C48.814 3.02676 51.8409 -5.30664e-05 55.5748 -5.30664e-05C59.3095 -5.30664e-05 62.3363 3.02676 62.3363 6.76072Z" fill="white"/>
<path d="M17.5223 22.2536C17.5223 25.9876 14.4947 29.0144 10.7608 29.0144C7.02682 29.0144 4 25.9876 4 22.2536C4 18.5197 7.02682 15.4921 10.7608 15.4921C14.4947 15.4921 17.5223 18.5197 17.5223 22.2536Z" fill="#0077BD"/>
<path d="M32.4603 22.2536C32.4603 25.9876 29.4328 29.0144 25.6988 29.0144C21.9649 29.0144 18.9373 25.9876 18.9373 22.2536C18.9373 18.5197 21.9649 15.4921 25.6988 15.4921C29.4328 15.4921 32.4603 18.5197 32.4603 22.2536Z" fill="#0077BD"/>
<path d="M47.3981 22.2536C47.3981 25.9876 44.3713 29.0144 40.6374 29.0144C36.9027 29.0144 33.8759 25.9876 33.8759 22.2536C33.8759 18.5197 36.9027 15.4921 40.6374 15.4921C44.3713 15.4921 47.3981 18.5197 47.3981 22.2536Z" fill="#0077BD"/>
<path d="M32.4603 37.7461C32.4603 41.4808 29.4328 44.5076 25.6988 44.5076C21.9649 44.5076 18.9373 41.4808 18.9373 37.7461C18.9373 34.0121 21.9649 30.9853 25.6988 30.9853C29.4328 30.9853 32.4603 34.0121 32.4603 37.7461Z" fill="#0077BD"/>
<path d="M47.3981 37.7461C47.3981 41.4808 44.3713 44.5076 40.6374 44.5076C36.9027 44.5076 33.8759 41.4808 33.8759 37.7461C33.8759 34.0121 36.9027 30.9853 40.6374 30.9853C44.3713 30.9853 47.3981 34.0121 47.3981 37.7461Z" fill="white"/>
<path d="M124.821 30.8093V54.4861H122.072V5.60581H124.821V26.41L140.432 5.60581H143.975L129.311 25.2797L148.254 54.4861H144.862L127.509 27.479L124.821 30.8093Z" fill="white"/>
<path d="M188.263 47.2761L190.34 49.1394C185.575 53.4782 179.963 55.6465 173.507 55.6465C166.583 55.6465 160.68 53.2079 155.803 48.3299C150.925 43.4527 148.487 37.5512 148.487 30.6261C148.487 23.7218 150.925 17.8261 155.803 12.9373C160.68 8.05002 166.583 5.60565 173.507 5.60565C179.963 5.60565 185.575 7.77466 190.34 12.1127L188.263 14.0071C184.067 10.2796 179.148 8.4162 173.507 8.4162C167.376 8.4162 162.142 10.5852 157.805 14.9232C153.467 19.2613 151.297 24.496 151.297 30.6261C151.297 36.7777 153.467 42.0211 157.805 46.3599C162.142 50.6972 167.376 52.8669 173.507 52.8669C179.148 52.8669 184.067 51.0035 188.263 47.2761Z" fill="white"/>
<path d="M210.659 8.35485V54.4858H207.909V8.35485H195.536V5.60556H223.031V8.35485H210.659Z" fill="white"/>
<path d="M88.3217 23.8125C88.5156 23.8125 88.7066 23.8254 88.8948 23.8442C88.9539 23.8507 89.0123 23.86 89.0707 23.868C89.2019 23.8853 89.3316 23.9069 89.4599 23.9336C89.5233 23.9465 89.5861 23.9602 89.6481 23.9754C89.78 24.0078 89.9097 24.0453 90.0373 24.0864C90.0863 24.1022 90.1361 24.1152 90.1836 24.1325C90.3509 24.1916 90.5145 24.2587 90.6745 24.3329C90.7279 24.3574 90.7791 24.3863 90.8317 24.4129C90.9398 24.4677 91.0465 24.5239 91.151 24.5852C91.2144 24.6234 91.2772 24.6623 91.3391 24.702C91.43 24.7604 91.5194 24.8224 91.6073 24.8865C91.6664 24.9298 91.7262 24.9716 91.7839 25.017C91.799 25.0285 91.8149 25.0393 91.8293 25.0509C91.8365 25.0588 91.8445 25.0667 91.8517 25.0754C92.1169 25.2916 92.3663 25.5266 92.5876 25.7868L92.6107 25.7883C94.4301 27.5486 96.904 28.6356 99.6353 28.6356C101.876 28.6356 103.94 27.8975 105.616 26.6648H105.621C105.98 26.3801 106.398 26.1703 106.847 26.0391C106.918 26.0182 106.989 25.9988 107.061 25.9815C107.136 25.9649 107.21 25.949 107.286 25.9368C107.454 25.9101 107.624 25.8914 107.8 25.8914C109.749 25.8914 111.328 27.4707 111.328 29.4192C111.328 31.3676 109.749 32.947 107.8 32.947C107.624 32.947 107.454 32.9282 107.286 32.9016C107.21 32.8893 107.136 32.8734 107.061 32.8569C106.989 32.8403 106.918 32.8208 106.847 32.7992C106.398 32.668 105.98 32.459 105.621 32.1735L105.616 32.1742C103.94 30.9409 101.876 30.2027 99.6353 30.2027C96.904 30.2027 94.4301 31.2905 92.6107 33.0501L92.5876 33.0515C92.3663 33.3117 92.1169 33.5467 91.8517 33.763C91.8445 33.7716 91.8365 33.7795 91.8293 33.7875C91.8149 33.7997 91.799 33.8098 91.7839 33.8214C91.7262 33.8668 91.6664 33.9086 91.6073 33.9525C91.5194 34.016 91.43 34.078 91.3391 34.1364C91.2772 34.176 91.2144 34.2157 91.151 34.2531C91.0465 34.3144 90.9398 34.3714 90.8317 34.4254C90.7791 34.4521 90.7279 34.4809 90.6745 34.5054C90.5145 34.5804 90.3509 34.6474 90.1836 34.7065C90.1361 34.7231 90.0863 34.7361 90.0373 34.752C89.9097 34.7938 89.78 34.8313 89.6481 34.8637C89.5861 34.8781 89.5233 34.8918 89.4599 34.9048C89.3316 34.9314 89.2019 34.9531 89.0714 34.9711C89.0123 34.979 88.9539 34.9877 88.8948 34.9934C88.7066 35.0136 88.5156 35.0259 88.3217 35.0259C85.2257 35.0259 82.715 32.5159 82.715 29.4192C82.715 26.3224 85.2257 23.8125 88.3217 23.8125Z" fill="#0077BD"/>
<path d="M112.962 30.7788C112.676 36.3386 110.517 41.1351 106.485 45.1675C102.127 49.5264 96.8818 51.7056 90.7511 51.7056C84.6001 51.7056 79.3459 49.5264 74.9877 45.1675C72.6248 42.8464 70.9041 40.2492 69.825 37.3781H66.8617C68.0424 41.0032 70.0788 44.2513 72.9715 47.1224C77.8797 52.0314 83.8065 54.4858 90.7511 54.4858C97.656 54.4858 103.557 52.0422 108.456 47.1534C113.353 42.2654 115.802 36.3495 115.802 29.4041C115.802 22.4797 113.353 16.5724 108.456 11.6851C103.557 6.79639 97.656 4.35273 90.7511 4.35273C83.8065 4.35273 77.8797 6.78702 72.9715 11.6541C71.545 13.1203 70.3239 14.6485 69.3053 16.2365H72.7272C73.399 15.3614 74.1523 14.5058 74.9877 13.6703C79.3459 9.31213 84.6001 7.13302 90.7511 7.13302C96.8818 7.13302 102.127 9.31213 106.485 13.6703C110.517 17.7027 112.676 22.4891 112.962 28.0295" fill="white"/>
</g>
<defs>
<filter id="filter0_d_520_3595" x="0" y="0" width="227.031" height="68" filterUnits="userSpaceOnUse" color-interpolation-filters="sRGB">
<feFlood flood-opacity="0" result="BackgroundImageFix"/>
<feColorMatrix in="SourceAlpha" type="matrix" values="0 0 0 0 0 0 0 0 0 0 0 0 0 0 0 0 0 0 127 0" result="hardAlpha"/>
<feOffset dy="4"/>
<feGaussianBlur stdDeviation="2"/>
<feComposite in2="hardAlpha" operator="out"/>
<feColorMatrix type="matrix" values="0 0 0 0 0 0 0 0 0 0 0 0 0 0 0 0 0 0 0.15 0"/>
<feBlend mode="normal" in2="BackgroundImageFix" result="effect1_dropShadow_520_3595"/>
<feBlend mode="normal" in="SourceGraphic" in2="effect1_dropShadow_520_3595" result="shape"/>
</filter>
</defs>
</svg>
