<svg width="25" height="26" viewBox="0 0 25 26" fill="none" xmlns="http://www.w3.org/2000/svg">
<path d="M12.1973 22.96C12.1973 24.5605 10.8998 25.8577 9.29956 25.8577C7.69933 25.8577 6.40186 24.5605 6.40186 22.96C6.40186 21.3597 7.69933 20.0623 9.29956 20.0623C10.8998 20.0623 12.1973 21.3597 12.1973 22.96Z" fill="#0077BD"/>
<path d="M12.1973 3.04151C12.1973 4.64204 10.8998 5.93921 9.29956 5.93921C7.69933 5.93921 6.40186 4.64204 6.40186 3.04151C6.40186 1.44128 7.69933 0.144112 9.29956 0.144112C10.8998 0.144112 12.1973 1.44128 12.1973 3.04151Z" fill="#373535"/>
<path d="M18.5966 3.04151C18.5966 4.64204 17.2994 5.93921 15.6992 5.93921C14.0987 5.93921 12.8015 4.64204 12.8015 3.04151C12.8015 1.44128 14.0987 0.144112 15.6992 0.144112C17.2994 0.144112 18.5966 1.44128 18.5966 3.04151Z" fill="#373535"/>
<path d="M24.9999 3.04151C24.9999 4.64204 23.7028 5.93921 22.1022 5.93921C20.502 5.93921 19.2048 4.64204 19.2048 3.04151C19.2048 1.44128 20.502 0.144112 22.1022 0.144112C23.7028 0.144112 24.9999 1.44128 24.9999 3.04151Z" fill="#373535"/>
<path d="M5.7951 9.6811C5.7951 11.2813 4.49762 12.5785 2.89739 12.5785C1.29717 12.5785 0 11.2813 0 9.6811C0 8.08087 1.29717 6.78339 2.89739 6.78339C4.49762 6.78339 5.7951 8.08087 5.7951 9.6811Z" fill="#0077BD"/>
<path d="M12.1973 9.6811C12.1973 11.2813 10.8998 12.5785 9.29956 12.5785C7.69933 12.5785 6.40186 11.2813 6.40186 9.6811C6.40186 8.08087 7.69933 6.78339 9.29956 6.78339C10.8998 6.78339 12.1973 8.08087 12.1973 9.6811Z" fill="#0077BD"/>
<path d="M18.5966 9.6811C18.5966 11.2813 17.2994 12.5785 15.6992 12.5785C14.0987 12.5785 12.8015 11.2813 12.8015 9.6811C12.8015 8.08087 14.0987 6.78339 15.6992 6.78339C17.2994 6.78339 18.5966 8.08087 18.5966 9.6811Z" fill="#0077BD"/>
<path d="M12.1973 16.3204C12.1973 17.921 10.8998 19.2181 9.29956 19.2181C7.69933 19.2181 6.40186 17.921 6.40186 16.3204C6.40186 14.7202 7.69933 13.423 9.29956 13.423C10.8998 13.423 12.1973 14.7202 12.1973 16.3204Z" fill="#0077BD"/>
<path d="M18.5966 16.3206C18.5966 17.9211 17.2994 19.2183 15.6992 19.2183C14.0987 19.2183 12.8015 17.9211 12.8015 16.3206C12.8015 14.7203 14.0987 13.4232 15.6992 13.4232C17.2994 13.4232 18.5966 14.7203 18.5966 16.3206Z" fill="#373535"/>
</svg>
